<svg width="22" height="22" viewBox="0 0 22 22" fill="none" xmlns="http://www.w3.org/2000/svg">
<g id="IC_Bed" clip-path="url(#clip0_25_3650)">
<path id="Vector" d="M17.7058 10.459V16.6222H16.3362V14.5678H5.37937V16.6222H4.00977V5.66541H5.37937V12.5134H10.8578V7.71981H14.9666C15.6931 7.71981 16.3898 8.0084 16.9035 8.52211C17.4172 9.03581 17.7058 9.73253 17.7058 10.459ZM8.11858 11.8286C7.57371 11.8286 7.05117 11.6122 6.66589 11.2269C6.28062 10.8416 6.06417 10.3191 6.06417 9.77422C6.06417 9.22935 6.28062 8.70681 6.66589 8.32153C7.05117 7.93626 7.57371 7.71981 8.11858 7.71981C8.66344 7.71981 9.18598 7.93626 9.57126 8.32153C9.95654 8.70681 10.173 9.22935 10.173 9.77422C10.173 10.3191 9.95654 10.8416 9.57126 11.2269C9.18598 11.6122 8.66344 11.8286 8.11858 11.8286Z" fill="#858585"/>
</g>
<defs>
<clipPath id="clip0_25_3650">
<rect width="20.544" height="20.544" fill="white" transform="translate(0.584961 0.52948)"/>
</clipPath>
</defs>
</svg>
