<svg width="48" height="48" viewBox="0 0 48 48" fill="none" xmlns="http://www.w3.org/2000/svg">
<g id="IC_Filter">
<rect width="48" height="48" rx="10" fill="url(#paint0_linear_25_2221)"/>
<g id="IC_Filter_2">
<path id="Vector" d="M19.336 28.802C19.5013 28.3335 19.8078 27.9279 20.2133 27.641C20.6188 27.3541 21.1033 27.2 21.6 27.2C22.0967 27.2 22.5812 27.3541 22.9867 27.641C23.3922 27.9279 23.6987 28.3335 23.864 28.802H32V30.402H23.864C23.6987 30.8704 23.3922 31.276 22.9867 31.5629C22.5812 31.8498 22.0967 32.0039 21.6 32.0039C21.1033 32.0039 20.6188 31.8498 20.2133 31.5629C19.8078 31.276 19.5013 30.8704 19.336 30.402H16V28.802H19.336ZM24.136 23.202C24.3013 22.7335 24.6078 22.3279 25.0133 22.041C25.4188 21.7541 25.9033 21.6 26.4 21.6C26.8967 21.6 27.3812 21.7541 27.7867 22.041C28.1922 22.3279 28.4987 22.7335 28.664 23.202H32V24.802H28.664C28.4987 25.2704 28.1922 25.676 27.7867 25.9629C27.3812 26.2498 26.8967 26.4039 26.4 26.4039C25.9033 26.4039 25.4188 26.2498 25.0133 25.9629C24.6078 25.676 24.3013 25.2704 24.136 24.802H16V23.202H24.136ZM19.336 17.602C19.5013 17.1335 19.8078 16.7279 20.2133 16.441C20.6188 16.1541 21.1033 16 21.6 16C22.0967 16 22.5812 16.1541 22.9867 16.441C23.3922 16.7279 23.6987 17.1335 23.864 17.602H32V19.202H23.864C23.6987 19.6704 23.3922 20.076 22.9867 20.3629C22.5812 20.6498 22.0967 20.8039 21.6 20.8039C21.1033 20.8039 20.6188 20.6498 20.2133 20.3629C19.8078 20.076 19.5013 19.6704 19.336 19.202H16V17.602H19.336ZM21.6 19.202C21.8122 19.202 22.0157 19.1177 22.1657 18.9676C22.3157 18.8176 22.4 18.6141 22.4 18.402C22.4 18.1898 22.3157 17.9863 22.1657 17.8363C22.0157 17.6862 21.8122 17.602 21.6 17.602C21.3878 17.602 21.1843 17.6862 21.0343 17.8363C20.8843 17.9863 20.8 18.1898 20.8 18.402C20.8 18.6141 20.8843 18.8176 21.0343 18.9676C21.1843 19.1177 21.3878 19.202 21.6 19.202ZM26.4 24.802C26.6122 24.802 26.8157 24.7177 26.9657 24.5676C27.1157 24.4176 27.2 24.2141 27.2 24.002C27.2 23.7898 27.1157 23.5863 26.9657 23.4363C26.8157 23.2862 26.6122 23.202 26.4 23.202C26.1878 23.202 25.9843 23.2862 25.8343 23.4363C25.6843 23.5863 25.6 23.7898 25.6 24.002C25.6 24.2141 25.6843 24.4176 25.8343 24.5676C25.9843 24.7177 26.1878 24.802 26.4 24.802ZM21.6 30.402C21.8122 30.402 22.0157 30.3177 22.1657 30.1676C22.3157 30.0176 22.4 29.8141 22.4 29.602C22.4 29.3898 22.3157 29.1863 22.1657 29.0363C22.0157 28.8862 21.8122 28.802 21.6 28.802C21.3878 28.802 21.1843 28.8862 21.0343 29.0363C20.8843 29.1863 20.8 29.3898 20.8 29.602C20.8 29.8141 20.8843 30.0176 21.0343 30.1676C21.1843 30.3177 21.3878 30.402 21.6 30.402Z" fill="white"/>
</g>
</g>
<defs>
<linearGradient id="paint0_linear_25_2221" x1="24" y1="-23.0769" x2="24" y2="63.0769" gradientUnits="userSpaceOnUse">
<stop offset="0.140112" stop-color="#A0DAFB"/>
<stop offset="1" stop-color="#0A8ED9"/>
</linearGradient>
</defs>
</svg>
